<svg width="3466" height="475" viewBox="0 0 3466 475" fill="none" xmlns="http://www.w3.org/2000/svg">
<path d="M168.6 474.4C139.4 474.4 114.2 470.4 93 462.4C71.8 454 54.2 442.6 40.2 428.2C26.6 413.4 16.4 396 9.6 376C3.2 355.6 1.78814e-07 333.2 1.78814e-07 308.8V50.2H93.6V301C93.6 317.8 95.4 332.2 99 344.2C103 355.8 108.2 365.4 114.6 373C121.4 380.2 129.4 385.4 138.6 388.6C148.2 391.8 158.6 393.4 169.8 393.4C192.6 393.4 211 386.4 225 372.4C239.4 358.4 246.6 334.6 246.6 301V50.2H340.2V308.8C340.2 333.2 336.8 355.6 330 376C323.2 396.4 312.8 414 298.8 428.8C284.8 443.2 267 454.4 245.4 462.4C223.8 470.4 198.2 474.4 168.6 474.4ZM614.419 229.6C606.419 227.6 597.019 225.6 586.219 223.6C575.419 221.2 563.819 220 551.419 220C545.819 220 539.019 220.6 531.019 221.8C523.419 222.6 517.619 223.6 513.619 224.8V466H424.219V167.2C440.219 161.6 459.019 156.4 480.619 151.6C502.619 146.4 527.019 143.8 553.819 143.8C558.619 143.8 564.419 144.2 571.219 145C578.019 145.4 584.819 146.2 591.619 147.4C598.419 148.2 605.219 149.4 612.019 151C618.819 152.2 624.619 153.8 629.419 155.8L614.419 229.6ZM879.544 305.8C879.544 248.2 858.344 219.4 815.944 219.4C806.744 219.4 797.544 220.6 788.344 223C779.544 225.4 772.344 228.4 766.744 232V394.6C771.144 395.4 776.744 396.2 783.544 397C790.344 397.4 797.744 397.6 805.744 397.6C830.144 397.6 848.544 389.2 860.944 372.4C873.344 355.6 879.544 333.4 879.544 305.8ZM970.744 308.2C970.744 333.4 966.944 356.2 959.344 376.6C952.144 397 941.544 414.4 927.544 428.8C913.544 443.2 896.344 454.4 875.944 462.4C855.544 470 832.344 473.8 806.344 473.8C795.544 473.8 784.144 473.2 772.144 472C760.544 471.2 748.944 470 737.344 468.4C726.144 466.8 715.344 465 704.944 463C694.544 460.6 685.344 458.2 677.344 455.8V14.8L766.744 0.399986V157.6C776.744 153.2 787.144 149.8 797.944 147.4C808.744 145 820.344 143.8 832.744 143.8C855.144 143.8 874.944 147.8 892.144 155.8C909.344 163.4 923.744 174.4 935.344 188.8C946.944 203.2 955.744 220.6 961.744 241C967.744 261 970.744 283.4 970.744 308.2ZM1160.05 403.6C1168.85 403.6 1177.25 403.4 1185.25 403C1193.25 402.6 1199.65 402 1204.45 401.2V333.4C1200.85 332.6 1195.45 331.8 1188.25 331C1181.05 330.2 1174.45 329.8 1168.45 329.8C1160.05 329.8 1152.05 330.4 1144.45 331.6C1137.25 332.4 1130.85 334.2 1125.25 337C1119.65 339.8 1115.25 343.6 1112.05 348.4C1108.85 353.2 1107.25 359.2 1107.25 366.4C1107.25 380.4 1111.85 390.2 1121.05 395.8C1130.65 401 1143.65 403.6 1160.05 403.6ZM1152.85 142C1179.25 142 1201.25 145 1218.85 151C1236.45 157 1250.45 165.6 1260.85 176.8C1271.65 188 1279.25 201.6 1283.65 217.6C1288.05 233.6 1290.25 251.4 1290.25 271V457C1277.45 459.8 1259.65 463 1236.85 466.6C1214.05 470.6 1186.45 472.6 1154.05 472.6C1133.65 472.6 1115.05 470.8 1098.25 467.2C1081.85 463.6 1067.65 457.8 1055.65 449.8C1043.65 441.4 1034.45 430.6 1028.05 417.4C1021.65 404.2 1018.45 388 1018.45 368.8C1018.45 350.4 1022.05 334.8 1029.25 322C1036.85 309.2 1046.85 299 1059.25 291.4C1071.65 283.8 1085.85 278.4 1101.85 275.2C1117.85 271.6 1134.45 269.8 1151.65 269.8C1163.25 269.8 1173.45 270.4 1182.25 271.6C1191.45 272.4 1198.85 273.6 1204.45 275.2V266.8C1204.45 251.6 1199.85 239.4 1190.65 230.2C1181.45 221 1165.45 216.4 1142.65 216.4C1127.45 216.4 1112.45 217.6 1097.65 220C1082.85 222 1070.05 225 1059.25 229L1047.85 157C1053.05 155.4 1059.45 153.8 1067.05 152.2C1075.05 150.2 1083.65 148.6 1092.85 147.4C1102.05 145.8 1111.65 144.6 1121.65 143.8C1132.05 142.6 1142.45 142 1152.85 142ZM1371.09 161.2C1386.29 156.8 1405.89 152.8 1429.89 149.2C1453.89 145.2 1479.09 143.2 1505.49 143.2C1532.29 143.2 1554.49 146.8 1572.09 154C1590.09 160.8 1604.29 170.6 1614.69 183.4C1625.09 196.2 1632.49 211.4 1636.89 229C1641.29 246.6 1643.49 266.2 1643.49 287.8V466H1554.09V298.6C1554.09 269.8 1550.29 249.4 1542.69 237.4C1535.09 225.4 1520.89 219.4 1500.09 219.4C1493.69 219.4 1486.89 219.8 1479.69 220.6C1472.49 221 1466.09 221.6 1460.49 222.4V466H1371.09V161.2ZM1824.01 389.8C1828.41 390.2 1833.41 390.6 1839.01 391C1845.01 391 1852.01 391 1860.01 391C1906.81 391 1941.41 379.2 1963.81 355.6C1986.61 332 1998.01 299.4 1998.01 257.8C1998.01 214.2 1987.21 181.2 1965.61 158.8C1944.01 136.4 1909.81 125.2 1863.01 125.2C1856.61 125.2 1850.01 125.4 1843.21 125.8C1836.41 125.8 1830.01 126.2 1824.01 127V389.8ZM2094.61 257.8C2094.61 293.8 2089.01 325.2 2077.81 352C2066.61 378.8 2050.61 401 2029.81 418.6C2009.41 436.2 1984.41 449.4 1954.81 458.2C1925.21 467 1892.01 471.4 1855.21 471.4C1838.41 471.4 1818.81 470.6 1796.41 469C1774.01 467.8 1752.01 465 1730.41 460.6V55.6C1752.01 51.6 1774.41 49 1797.61 47.8C1821.21 46.2 1841.41 45.4 1858.21 45.4C1893.81 45.4 1926.01 49.4 1954.81 57.4C1984.01 65.4 2009.01 78 2029.81 95.2C2050.61 112.4 2066.61 134.4 2077.81 161.2C2089.01 188 2094.61 220.2 2094.61 257.8ZM2436.2 455.2C2421 459.6 2401.4 463.6 2377.4 467.2C2353.4 471.2 2328.2 473.2 2301.8 473.2C2275 473.2 2252.6 469.6 2234.6 462.4C2217 455.2 2203 445.2 2192.6 432.4C2182.2 419.2 2174.8 403.6 2170.4 385.6C2166 367.6 2163.8 347.8 2163.8 326.2V150.4H2253.2V315.4C2253.2 344.2 2257 365 2264.6 377.8C2272.2 390.6 2286.4 397 2307.2 397C2313.6 397 2320.4 396.8 2327.6 396.4C2334.8 395.6 2341.2 394.8 2346.8 394V150.4H2436.2V455.2ZM2609.52 264.4C2618.32 254.8 2627.32 244.8 2636.52 234.4C2646.12 224 2655.32 213.8 2664.12 203.8C2672.92 193.4 2681.12 183.6 2688.72 174.4C2696.72 165.2 2703.52 157.2 2709.12 150.4H2815.32C2794.12 174.8 2773.32 198.2 2752.92 220.6C2732.92 242.6 2710.92 265.4 2686.92 289C2698.92 299.8 2711.32 312.8 2724.12 328C2736.92 342.8 2749.32 358.2 2761.32 374.2C2773.32 390.2 2784.32 406.2 2794.32 422.2C2804.32 438.2 2812.72 452.8 2819.52 466H2716.92C2710.52 455.6 2703.12 444.2 2694.72 431.8C2686.72 419 2678.12 406.4 2668.92 394C2659.72 381.2 2649.92 369 2639.52 357.4C2629.52 345.8 2619.52 336 2609.52 328V466H2520.12V14.8L2609.52 0.399986V264.4ZM2982.32 403.6C2991.12 403.6 2999.52 403.4 3007.52 403C3015.52 402.6 3021.92 402 3026.72 401.2V333.4C3023.12 332.6 3017.72 331.8 3010.52 331C3003.32 330.2 2996.72 329.8 2990.72 329.8C2982.32 329.8 2974.32 330.4 2966.72 331.6C2959.52 332.4 2953.12 334.2 2947.52 337C2941.92 339.8 2937.52 343.6 2934.32 348.4C2931.12 353.2 2929.52 359.2 2929.52 366.4C2929.52 380.4 2934.12 390.2 2943.32 395.8C2952.92 401 2965.92 403.6 2982.32 403.6ZM2975.12 142C3001.52 142 3023.52 145 3041.12 151C3058.72 157 3072.72 165.6 3083.12 176.8C3093.92 188 3101.52 201.6 3105.92 217.6C3110.32 233.6 3112.52 251.4 3112.52 271V457C3099.72 459.8 3081.92 463 3059.12 466.6C3036.32 470.6 3008.72 472.6 2976.32 472.6C2955.92 472.6 2937.32 470.8 2920.52 467.2C2904.12 463.6 2889.92 457.8 2877.92 449.8C2865.92 441.4 2856.72 430.6 2850.32 417.4C2843.92 404.2 2840.72 388 2840.72 368.8C2840.72 350.4 2844.32 334.8 2851.52 322C2859.12 309.2 2869.12 299 2881.52 291.4C2893.92 283.8 2908.12 278.4 2924.12 275.2C2940.12 271.6 2956.72 269.8 2973.92 269.8C2985.52 269.8 2995.72 270.4 3004.52 271.6C3013.72 272.4 3021.12 273.6 3026.72 275.2V266.8C3026.72 251.6 3022.12 239.4 3012.92 230.2C3003.72 221 2987.72 216.4 2964.92 216.4C2949.72 216.4 2934.72 217.6 2919.92 220C2905.12 222 2892.32 225 2881.52 229L2870.12 157C2875.32 155.4 2881.72 153.8 2889.32 152.2C2897.32 150.2 2905.92 148.6 2915.12 147.4C2924.32 145.8 2933.92 144.6 2943.92 143.8C2954.32 142.6 2964.72 142 2975.12 142ZM3193.36 161.2C3208.56 156.8 3228.16 152.8 3252.16 149.2C3276.16 145.2 3301.36 143.2 3327.76 143.2C3354.56 143.2 3376.76 146.8 3394.36 154C3412.36 160.8 3426.56 170.6 3436.96 183.4C3447.36 196.2 3454.76 211.4 3459.16 229C3463.56 246.6 3465.76 266.2 3465.76 287.8V466H3376.36V298.6C3376.36 269.8 3372.56 249.4 3364.96 237.4C3357.36 225.4 3343.16 219.4 3322.36 219.4C3315.96 219.4 3309.16 219.8 3301.96 220.6C3294.76 221 3288.36 221.6 3282.76 222.4V466H3193.36V161.2Z" fill="black"/>
</svg>
